# xmcd
# Track frame offsets:
# 150
# 22431
# 38615
# 60156
# 76969
# 99000
# 107001
# 135137
# 152619
# 176877
#
# Disc length: 2703 seconds
# Revision: 0
# Processed by: cddbd v1.4PL0 Copyright (c) Steve Scherf et al.
# Submitted via: VisiTrax 2.9.5.181 - For more info visit www.synapsa.com
#
DISCID=6b0a8d0a
DTITLE=Cuban Heels - Morphine Mamma
DYEAR=2003
DGENRE=Blues
TTITLE0=I Need Love (let's get down on the floor)
TTITLE1=Deal Goes South
TTITLE2=Let me Ride with You
TTITLE3=I Wnat You (lovesong)
TTITLE4=Another man's Done Gone
TTITLE5=No more Trouble
TTITLE6=Craving You
TTITLE7=Strangerblues
TTITLE8=Trick or Treat
TTITLE9=Gonna Move
EXTD=
EXTT0=
EXTT1=
EXTT2=
EXTT3=
EXTT4=
EXTT5=
EXTT6=
EXTT7=
EXTT8=
EXTT9=
PLAYORDER=
